Coordinates
version=1
nRows=14
nColumns=36
inDegrees=yes

Units are S.I. units (second, meters, Newtons, ...)
If the header above contains a line with 'inDegrees', this indicates whether rotational values are in degrees (yes) or radians (no).

endheader
time	pelvis_tilt	pelvis_list	pelvis_rotation	pelvis_tx	pelvis_ty	pelvis_tz	hip_flexion_r	hip_adduction_r	hip_rotation_r	knee_angle_r	knee_angle_r_beta	ankle_angle_r	subtalar_angle_r	mtp_angle_r	hip_flexion_l	hip_adduction_l	hip_rotation_l	knee_angle_l	knee_angle_l_beta	ankle_angle_l	subtalar_angle_l	mtp_angle_l	lumbar_extension	lumbar_bending	lumbar_rotation	arm_flex_r	arm_add_r	arm_rot_r	elbow_flex_r	pro_sup_r	arm_flex_l	arm_add_l	arm_rot_l	elbow_flex_l	pro_sup_l
     29.93333330	      0.12665509	      0.70516340	     -3.99725981	      1.02920484	      0.94217604	      0.73637807	     18.47859030	     -1.11986398	      4.56895033	     54.68769249	      0.95448029	     -1.06124586	    -17.25111072	     -7.49999987	      2.44890255	      1.45683123	      1.04864247	     15.70096263	      0.27403349	      8.45265888	     -5.75014240	     -7.49999987	    -12.65059105	     -2.33472359	      4.64333869	      3.30510582	    -12.91480788	     14.06483221	     25.19522377	     70.86725357	      3.90628110	    -12.61260815	      3.16246993	     23.13651023	     70.84184694
     29.95000000	     -0.17456211	      0.13428941	     -4.02727927	      1.02771154	      0.94108525	      0.73423545	     20.21448861	     -0.79146085	      3.98325106	     50.75701600	      0.88587705	      0.14360870	    -17.31050128	     -7.49999987	      0.72976115	      0.96633229	      1.00794745	     14.52319441	      0.25347756	      8.90663342	     -5.50266129	     -7.49999987	    -12.47691520	     -1.44693839	      3.63377717	      2.49421985	    -12.86531628	     13.42116004	     25.15593187	     71.31947213	      4.54384865	    -13.11151043	      3.12763825	     24.62935261	     71.30945670
     29.96666670	     -0.24849070	     -0.29062350	     -4.04002258	      1.02519715	      0.94088570	      0.73203438	     21.41717670	     -0.66009173	      3.40595590	     46.14358833	      0.80535754	      1.00939982	    -17.05597434	     -7.49999987	     -1.22867664	      0.65027886	      0.98248950	     13.19821847	      0.23035237	      9.26787653	     -5.23213464	     -7.49999987	    -12.81537989	     -0.74002334	      2.57132169	      1.82927157	    -12.79627057	     12.04448496	     25.28811356	     70.82740589	      4.95199152	    -13.65571063	      2.59456310	     26.73970985	     70.92413750
     29.98333330	     -0.60069860	     -0.63589267	     -3.99444270	      1.02292165	      0.94053209	      0.73116327	     22.64147881	     -0.60773059	      2.75763749	     40.82279147	      0.71249212	      1.69908007	    -16.13622217	     -7.49999987	     -2.79883144	      0.38084387	      1.25965615	     11.95613528	      0.20867393	      9.40347070	     -5.46844818	     -7.49999987	    -12.76962814	     -0.07912751	      1.51315203	      1.31869377	    -12.78072759	     10.98675533	     24.91412808	     71.16933735	      5.51135006	    -14.22862251	      2.35639503	     27.88150622	     71.47253372
     30.00000000	     -0.63218530	     -0.79917946	     -4.01288156	      1.02115851	      0.93986824	      0.73213407	     23.33361394	     -0.66305209	      2.30045710	     35.09982317	      0.61260748	      1.96571415	    -14.69611596	     -7.49999987	     -4.62416986	      0.22035369	      1.13007212	     10.80315706	      0.18855066	      9.80867190	     -4.61703841	     -7.49999987	    -13.40179124	      0.19584760	      0.90897546	      0.56248097	    -12.48223046	      6.50993578	     25.05818866	     79.13485064	      5.97723138	    -14.87037487	      0.37102997	     30.00380557	     79.13471793
     30.01666670	     -0.72483006	     -0.91957511	     -3.92296465	      1.01936402	      0.93725353	      0.73392811	     23.94210270	     -0.71999485	      1.83505590	     29.14167573	      0.50861819	      2.23221202	    -12.75912328	     -7.49999987	     -6.23536013	      0.12692924	      1.53089414	      9.85399231	      0.17198461	      9.94190899	     -4.77882522	     -7.49999987	    -13.80352175	      0.41219576	     -0.02433544	      0.28203283	    -12.50461595	      6.00605979	     24.87374890	     79.29122232	      6.48710296	    -15.91561456	      0.37173414	     31.35004499	     79.40667862
     30.03333330	     -0.84153012	     -0.94788274	     -3.69764778	      1.01575946	      0.93153229	      0.73667708	     24.59257820	     -0.82834825	      1.34868184	     23.26464340	      0.40604463	      2.86757923	    -10.27417696	     -7.49999987	     -7.67120244	      0.15747691	      2.05301542	      9.09924220	      0.15881174	     10.31328853	     -5.35832069	     -7.49999987	    -14.11658532	      0.46400263	     -0.77734096	     -0.07954653	    -12.49061140	      5.54929496	     24.86746491	     79.23648810	      7.23033555	    -17.01499286	      0.41431381	     32.29527717	     79.57750800
     30.05000000	     -1.06806870	     -1.00719577	     -3.23108057	      1.00987170	      0.92256857	      0.74029428	     25.48998479	     -0.89975405	      0.68360515	     17.85274557	      0.31158919	      4.10759802	     -7.34378713	     -7.49999987	     -8.82785364	      0.12908905	      2.60501267	      8.63664938	      0.15073797	     11.20675032	     -6.08635583	     -7.49999987	    -14.35408670	      0.55693190	     -1.77231223	     -0.34891258	    -12.45541794	      5.12739148	     25.15114291	     78.54932109	      7.83370198	    -18.31983558	      0.69687589	     33.38207934	     79.21379922
     30.06666670	     -1.43426054	     -1.16467579	     -2.76825380	      1.00463319	      0.91287647	      0.74407446	     26.69214753	     -0.75931459	      0.21073729	     13.29940566	      0.23211842	      5.77213577	     -4.57542402	     -7.49999987	     -9.69286583	     -0.08598767	      2.72601023	      8.57784986	      0.14971172	     12.52449784	     -6.55758387	     -7.49999987	    -14.36715975	      0.77573128	     -2.66816850	     -0.58908620	    -12.49633776	      4.73043882	     25.43074608	     78.02607814	      8.35446865	    -19.61347335	      1.17449683	     34.30603435	     78.98659929
     30.08333330	     -1.81981179	     -1.53954362	     -2.34026950	      1.00320853	      0.90602994	      0.74709123	     27.83470601	     -0.32100562	      0.10382998	      9.76319488	      0.17039990	      7.32572792	     -2.52174509	     -7.49999987	    -10.39447546	     -0.63393288	      2.59374966	      9.03677021	      0.15772139	     14.18354164	     -6.73234544	     -7.49999987	    -14.18685138	      1.29240696	     -3.47371124	     -0.83363113	    -12.67018084	      4.38915720	     25.47801181	     77.90107799	      8.78825430	    -20.77841778	      1.82233437	     34.77521724	     79.15325977
     30.10000000	     -2.17448757	     -2.06338359	     -2.11484652	      1.00421769	      0.90311952	      0.74959418	     28.75767882	      0.40222872	      0.41533329	      7.44549642	      0.12994843	      8.60915380	     -1.05119289	     -7.49999987	    -11.08899925	     -1.37007968	      2.47091863	      9.81948258	      0.17138230	     15.62672935	     -7.23582339	     -7.49999987	    -13.75720886	      2.01636634	     -4.09180375	     -0.93299369	    -12.92483221	      4.14521760	     24.99041611	     77.99808718	      9.15635563	    -21.62759549	      2.36534643	     34.47400021	     79.35011013
     30.11666670	     -2.38387800	     -2.77418448	     -2.08442640	      1.00472486	      0.90172772	      0.75140187	     29.29713383	      1.47253974	      1.07854674	      6.34514329	      0.11074364	      9.03280385	     -0.47658637	     -7.49999987	    -11.88051197	     -2.28784794	      2.22349883	     10.91849230	      0.19056364	     16.68415384	     -7.81640731	     -7.49999987	    -13.39254006	      2.92035212	     -4.42597089	     -1.09865133	    -13.22062608	      3.97082715	     24.77135156	     78.10174780	      9.34341463	    -22.11488366	      2.27228771	     34.20976734	     79.45600956
     30.13333330	     -2.53059638	     -3.39683717	     -2.16094037	      1.00486258	      0.89781329	      0.75180421	     29.64574568	      2.55218312	      1.73353141	      6.49058390	      0.11328206	      8.88101452	     -0.04071800	     -7.49999987	    -12.56775613	     -3.07393298	      1.84468101	     12.49700375	      0.21811386	     17.26181844	     -8.23995622	     -7.49999987	    -13.05763140	      3.66793814	     -4.66209508	     -1.34161337	    -13.53539928	      3.85278018	     24.68386402	     78.05524608	      9.35040012	    -22.53287144	      2.16817377	     33.99891797	     79.40450121
     30.15000000	     -2.68411799	     -4.22775198	     -2.07581309	      1.00604892	      0.89250963	      0.75062612	     29.71463843	      3.74114921	      1.99391881	      7.49605902	      0.13083091	      7.59131350	     -0.13741068	     -7.49999987	    -13.06915214	     -4.11322740	      1.21837220	     14.62253707	      0.25521142	     17.53267923	     -7.71344142	     -7.49999987	    -12.28523026	      4.82606310	     -5.16886120	     -0.88682482	    -13.97584717	      3.76979654	     22.81864655	     78.65878165	      9.64961600	    -22.27937419	      1.60344845	     31.91442278	     79.77907322
